<svg id="visual" viewBox="0 0 900 600" width="900" height="600" xmlns="http://www.w3.org/2000/svg" xmlns:xlink="http://www.w3.org/1999/xlink" version="1.1"><path d="M0 121L82 139L164 103L245 235L327 235L409 193L491 109L573 115L655 223L736 109L818 151L900 139L900 0L818 0L736 0L655 0L573 0L491 0L409 0L327 0L245 0L164 0L82 0L0 0Z" fill="#00cc8e"></path><path d="M0 235L82 199L164 241L245 331L327 379L409 289L491 271L573 265L655 289L736 265L818 265L900 217L900 137L818 149L736 107L655 221L573 113L491 107L409 191L327 233L245 233L164 101L82 137L0 119Z" fill="#00b98a"></path><path d="M0 307L82 295L164 337L245 373L327 445L409 391L491 349L573 325L655 367L736 313L818 349L900 283L900 215L818 263L736 263L655 287L573 263L491 269L409 287L327 377L245 329L164 239L82 197L0 233Z" fill="#00a784"></path><path d="M0 403L82 409L164 445L245 427L327 493L409 487L491 391L573 385L655 427L736 379L818 445L900 409L900 281L818 347L736 311L655 365L573 323L491 347L409 389L327 443L245 371L164 335L82 293L0 305Z" fill="#00957c"></path><path d="M0 601L82 601L164 601L245 601L327 601L409 601L491 601L573 601L655 601L736 601L818 601L900 601L900 407L818 443L736 377L655 425L573 383L491 389L409 485L327 491L245 425L164 443L82 407L0 401Z" fill="#038373"></path></svg>