<svg id="visual" viewBox="0 0 900 600" width="900" height="600" xmlns="http://www.w3.org/2000/svg" xmlns:xlink="http://www.w3.org/1999/xlink" version="1.1"><rect x="0" y="0" width="900" height="600" fill="#F7ECDE"></rect><path d="M0 213L21.5 198.2C43 183.3 86 153.7 128.8 150.8C171.7 148 214.3 172 257.2 175.8C300 179.7 343 163.3 385.8 166.5C428.7 169.7 471.3 192.3 514.2 197C557 201.7 600 188.3 642.8 172.8C685.7 157.3 728.3 139.7 771.2 145.5C814 151.3 857 180.7 878.5 195.3L900 210L900 0L878.5 0C857 0 814 0 771.2 0C728.3 0 685.7 0 642.8 0C600 0 557 0 514.2 0C471.3 0 428.7 0 385.8 0C343 0 300 0 257.2 0C214.3 0 171.7 0 128.8 0C86 0 43 0 21.5 0L0 0Z" fill="#54BAB9" stroke-linecap="round" stroke-linejoin="miter"></path></svg>